<svg xmlns="http://www.w3.org/2000/svg" enable-background="new 0 0 64 64" viewBox="0 0 64 64" id="rugby-ball"><path fill="#94C1FF" d="M35 38v-4-4-4-1c0-1.65-1.34-3-3-3-1.649 0-3 1.35-3 3v1 4 4 4 1c0 1.66 1.351 3 3 3 1.66 0 3-1.34 3-3V38zM46.34 12C50.521 17.57 53 24.49 53 32s-2.479 14.43-6.66 20H17.66C13.48 46.43 11 39.51 11 32s2.48-14.43 6.66-20H46.34zM41.72 7H22.29c2.84-2.53 6.12-4.57 9.71-6C35.59 2.43 38.87 4.47 41.72 7z"></path><path fill="#FFF" d="M17.66 52h28.68c-1.359 1.82-2.909 3.5-4.609 5H41.72 22.29C20.58 55.5 19.03 53.83 17.66 52zM46.34 12H17.66c1.37-1.82 2.92-3.5 4.62-5h.01 19.43.011C43.431 8.5 44.98 10.18 46.34 12z"></path><path fill="#5C9EFF" d="M32,22c-1.649,0-3,1.35-3,3v1v4v4v4v1c0,1.66,1.351,3,3,3c1.66,0,3-1.34,3-3v-1v-4v-4v-4v-1    C35,23.35,33.66,22,32,22z"></path><path fill="#94C1FF" d="M22.29,57h19.43c-2.85,2.53-6.13,4.57-9.72,6C28.41,61.57,25.13,59.53,22.29,57z"></path><path fill="#116FFF" d="M32,64c-0.126,0-0.252-0.023-0.371-0.071C18.49,58.675,10,46.142,10,32S18.49,5.325,31.629,0.071    c0.238-0.096,0.504-0.096,0.742,0C45.51,5.325,54,17.858,54,32s-8.49,26.675-21.629,31.929C32.252,63.977,32.126,64,32,64z     M32,2.079C19.836,7.114,12,18.814,12,32s7.836,24.886,20,29.921C44.164,56.886,52,45.186,52,32S44.164,7.114,32,2.079z"></path><path fill="#116FFF" d="M41.728 58H22.271c-.553 0-1-.447-1-1s.447-1 1-1h19.456c.553 0 1 .447 1 1S42.28 58 41.728 58zM46.341 53.001H17.658c-.553 0-1-.447-1-1s.447-1 1-1h28.683c.553 0 1 .447 1 1S46.894 53.001 46.341 53.001zM41.729 8H22.272c-.553 0-1-.447-1-1s.447-1 1-1h19.456c.553 0 1 .447 1 1S42.281 8 41.729 8zM46.342 12.999H17.659c-.553 0-1-.447-1-1s.447-1 1-1h28.683c.553 0 1 .447 1 1S46.895 12.999 46.342 12.999zM35 26c-.553 0-1-.447-1-1 0-1.103-.897-2-2-2s-2 .897-2 2c0 .553-.447 1-1 1s-1-.447-1-1c0-2.206 1.794-4 4-4s4 1.794 4 4C36 25.553 35.553 26 35 26zM32 43c-2.206 0-4-1.794-4-4 0-.553.447-1 1-1s1 .447 1 1c0 1.103.897 2 2 2s2-.897 2-2c0-.553.447-1 1-1s1 .447 1 1C36 41.206 34.206 43 32 43z"></path><path fill="#116FFF" d="M29 40c-.553 0-1-.447-1-1V25c0-.553.447-1 1-1s1 .447 1 1v14C30 39.553 29.553 40 29 40zM35 40c-.553 0-1-.447-1-1V25c0-.553.447-1 1-1s1 .447 1 1v14C36 39.553 35.553 40 35 40z"></path><path fill="#116FFF" d="M35.999 27.001h-7.998c-.553 0-1-.447-1-1s.447-1 1-1h7.998c.553 0 1 .447 1 1S36.552 27.001 35.999 27.001zM35.999 31.001h-7.998c-.553 0-1-.447-1-1s.447-1 1-1h7.998c.553 0 1 .447 1 1S36.552 31.001 35.999 31.001zM35.999 35.001h-7.998c-.553 0-1-.447-1-1s.447-1 1-1h7.998c.553 0 1 .447 1 1S36.552 35.001 35.999 35.001zM35.999 39.001h-7.998c-.553 0-1-.447-1-1s.447-1 1-1h7.998c.553 0 1 .447 1 1S36.552 39.001 35.999 39.001z"></path></svg>